<svg id="Layer_1" data-name="Layer 1" xmlns="http://www.w3.org/2000/svg" viewBox="0 0 124.67 25.33"><defs><style>.cls-1{fill:#fff;}</style></defs><title>twistquiz</title><path class="cls-1" d="M14.72,16.36c.28-.41.49-.72.72-1a50,50,0,0,1,6.22-7.48A27.45,27.45,0,0,1,29.21,3q2-.9,4-1.75a1.63,1.63,0,0,1,1.87.15l3.94,2.46c1,.64.94.95-.26,1.48a59.68,59.68,0,0,0-9.67,5.12A33.22,33.22,0,0,0,21.51,18c-1.42,1.88-2.73,3.8-4.13,5.69a1.8,1.8,0,0,1-1,.57,1.25,1.25,0,0,1-1.17-.45C13.1,22,11.08,20.08,8.72,18.34a71.13,71.13,0,0,0-6.13-3.66c-.29-.17-.61-.33-.9-.5C1,13.77,1,13.47,1.6,13l3.33-2.39c.91-.64,1.25-.65,2.41-.16a16.14,16.14,0,0,1,6.87,5.2Z"/><path class="cls-1" d="M47.6,16.11h.17l.11,0h.74l.12,0h.12l.2,0,.13,0,.09.06.09.1.05.13a1.35,1.35,0,0,1,0,.16v0h0v.1a1.45,1.45,0,0,1,0,.25.67.67,0,0,1-.11.21.39.39,0,0,1-.14.12.42.42,0,0,1-.19,0H44.8a.32.32,0,0,1-.18-.05.85.85,0,0,1-.15-.13,1.24,1.24,0,0,1-.1-.21.72.72,0,0,1,0-.25v-.1a.07.07,0,0,1,0,0v-.06a.05.05,0,0,1,0,0l0,0a.6.6,0,0,1,0-.12.34.34,0,0,1,.08-.1l.1-.07.11-.05h0l0,0H45l0,0h.77l.11,0h.35V5.06h-.36l-.12,0h-1l-.16,0-.12.05-.11.07a.44.44,0,0,0-.11.1l-.08.12a.88.88,0,0,0-.07.16,1.15,1.15,0,0,0,0,.18,1,1,0,0,0,0,.18v.55a.1.1,0,0,0,0,.06.3.3,0,0,0,0,.07.31.31,0,0,1,0,.07v.08a.1.1,0,0,0,0,.06V7a.1.1,0,0,0,0,.06v.15a1.22,1.22,0,0,1,0,.14,1.13,1.13,0,0,1,0,.12,1,1,0,0,0,0,.12,1.13,1.13,0,0,1,0,.12,1.21,1.21,0,0,1-.08.17.3.3,0,0,1-.12.12l-.13.07a.34.34,0,0,1-.14,0h-.06a.61.61,0,0,1-.2,0A.52.52,0,0,1,43.13,8,.45.45,0,0,1,43,7.81a.92.92,0,0,1,0-.27V4.62a1.86,1.86,0,0,1,0-.37,1.23,1.23,0,0,1,.11-.33.5.5,0,0,1,.2-.24.57.57,0,0,1,.28-.07h.18l.07,0h.08l.15,0h.15l.15,0,.15,0,.15,0h.15l.43,0,.45,0,.43,0h1.58l.11,0h.34l.11,0h.45l.22,0h.15l.15,0,.15,0,.15,0h.15l.15,0H50l.08,0h.17a.52.52,0,0,1,.28.07.64.64,0,0,1,.2.24,1.49,1.49,0,0,1,.12.32,1.53,1.53,0,0,1,0,.38V7.54a.78.78,0,0,1,0,.27.51.51,0,0,1-.14.21.66.66,0,0,1-.19.12.52.52,0,0,1-.2,0l-.13,0-.13,0L49.91,8a.35.35,0,0,1-.08-.13.76.76,0,0,1-.05-.16l0-.18c0-.07,0-.13,0-.2s0-.13,0-.2V6.85a.09.09,0,0,1,0-.05V6.33a.09.09,0,0,1,0-.05V6.16a2.8,2.8,0,0,0,0-.42,1.5,1.5,0,0,0-.09-.34.5.5,0,0,0-.18-.25.59.59,0,0,0-.33-.08H47.53V16.11Z"/><path class="cls-1" d="M55.6,9.57v0l0,0v0a2.15,2.15,0,0,1,.08-.3A2.19,2.19,0,0,1,55.8,9a.52.52,0,0,1,.16-.2.54.54,0,0,1,.25-.09.43.43,0,0,1,.24.06.45.45,0,0,1,.16.19,2.08,2.08,0,0,1,.18.56h0v.08h0v0l1.27,5.36L58.87,5h-.35l-.09,0h-.68l-.13,0-.11-.05-.1-.05-.08-.09a.41.41,0,0,1,0-.13.46.46,0,0,1,0-.09.55.55,0,0,1,0-.07.23.23,0,0,1,0-.08V4.33a.78.78,0,0,1,0-.27.62.62,0,0,1,.12-.21.42.42,0,0,1,.17-.15.61.61,0,0,1,.24,0H60.4a.63.63,0,0,1,.23,0,.42.42,0,0,1,.18.15.62.62,0,0,1,.12.21.84.84,0,0,1,0,.29v.06a.07.07,0,0,0,0,0v0a.81.81,0,0,1-.07.26.3.3,0,0,1-.14.16L60.57,5a.56.56,0,0,1-.18,0h-.26L59,17.13a1,1,0,0,1-.07.29.59.59,0,0,1-.14.21.62.62,0,0,1-.2.16.57.57,0,0,1-.24.05h0a.92.92,0,0,1-.35-.1.52.52,0,0,1-.23-.25,2.49,2.49,0,0,1-.14-.34q-.07-.2-.13-.42l-1.26-5.36L55,16.73a3.52,3.52,0,0,1-.11.4,2.52,2.52,0,0,1-.14.34.55.55,0,0,1-.21.25.77.77,0,0,1-.32.1h0a.58.58,0,0,1-.33-.09.62.62,0,0,1-.21-.26,1.4,1.4,0,0,1-.12-.35q0-.21-.08-.41L52.1,5h-.15l0,0h-.2l-.16,0L51.41,5a.39.39,0,0,1-.13-.11.57.57,0,0,1-.08-.18.5.5,0,0,1,0-.09.6.6,0,0,1,0-.07v0a.07.07,0,0,0,0,0V4.33a.84.84,0,0,1,0-.29.52.52,0,0,1,.14-.21.67.67,0,0,1,.19-.12.61.61,0,0,1,.24,0h2.58a.63.63,0,0,1,.23,0,.49.49,0,0,1,.18.12.65.65,0,0,1,.12.2.76.76,0,0,1,0,.28v.15l0,0v0a1.39,1.39,0,0,1,0,.18.56.56,0,0,1-.08.16.43.43,0,0,1-.11.1L54.54,5l-.11,0h-.61l-.07,0h-.33l1,9.92Z"/><path class="cls-1" d="M62.31,4.93h0A.54.54,0,0,1,62,4.88a.63.63,0,0,1-.17-.13,1.11,1.11,0,0,1-.1-.22.74.74,0,0,1,0-.24.69.69,0,0,1,0-.22.54.54,0,0,1,.11-.2.49.49,0,0,1,.18-.16.59.59,0,0,1,.26-.05h5a.52.52,0,0,1,.23.05.39.39,0,0,1,.17.16.47.47,0,0,1,.11.2.85.85,0,0,1,0,.22v0a.7.7,0,0,1,0,.22.71.71,0,0,1-.11.2.44.44,0,0,1-.17.13.52.52,0,0,1-.23.05H65.71V16.09h2.35a.6.6,0,0,1,.25.05.38.38,0,0,1,.17.16.47.47,0,0,1,.11.2.92.92,0,0,1,0,.24.75.75,0,0,1,0,.24.79.79,0,0,1-.11.22.38.38,0,0,1-.17.16.64.64,0,0,1-.27.05h-5.3a.55.55,0,0,1-.24-.05.59.59,0,0,1-.18-.13,1.23,1.23,0,0,1-.1-.21.66.66,0,0,1,0-.23v0a.75.75,0,0,1,0-.24.71.71,0,0,1,.1-.2.51.51,0,0,1,.17-.16.54.54,0,0,1,.25-.05h1.59V4.93h-2Z"/><path class="cls-1" d="M71,14.08v-.21a.07.07,0,0,1,0,0v-.06q0-.17.07-.33a1.87,1.87,0,0,1,.1-.31.68.68,0,0,1,.17-.22.33.33,0,0,1,.21-.07h.07l.07,0,.07,0,.08,0A.25.25,0,0,1,72,13a.37.37,0,0,1,.06.17,1.46,1.46,0,0,1,.05.19c0,.07,0,.14,0,.23a1.13,1.13,0,0,1,0,.12,1,1,0,0,0,0,.12l0,.15a1.06,1.06,0,0,0,0,.12l.06.28c0,.09,0,.18.08.28a1.58,1.58,0,0,0,.09.29l.12.27a2.1,2.1,0,0,0,.17.27,1.82,1.82,0,0,0,.2.23,2.22,2.22,0,0,0,.29.26,2,2,0,0,0,.32.2,1.26,1.26,0,0,0,.33.11,1.82,1.82,0,0,0,.33,0h.06a1.7,1.7,0,0,0,.67-.13,2.07,2.07,0,0,0,.61-.4,2.13,2.13,0,0,0,.48-.68,3.15,3.15,0,0,0,.24-.91v-.06a.07.07,0,0,1,0,0v-.27a2.67,2.67,0,0,0-.14-.9,2.06,2.06,0,0,0-.43-.71,3.93,3.93,0,0,0-.59-.53,3.27,3.27,0,0,0-.65-.36h0v0h0l-.11,0-.1,0-.11,0-.11,0-.21-.09-.21-.11a8.15,8.15,0,0,1-1-.52,5.37,5.37,0,0,1-.87-.68,2.36,2.36,0,0,1-.63-1,4.71,4.71,0,0,1-.2-1.47,4.68,4.68,0,0,1,.24-1.53,3.41,3.41,0,0,1,.71-1.2,3.57,3.57,0,0,1,1-.82,2.75,2.75,0,0,1,1.12-.32H74l0,0h.41l.23,0,.11,0H75l.1,0,.11,0,.09,0,.11,0,.1,0,.1,0,.2.05.22.07h0s0,0,0,0h.07l0,0h.18l0,0h.08l0,0h0l0,0,0,0,.07,0,.08,0,.07,0h.2l.11.05a.25.25,0,0,1,.09.08l.08.12a.11.11,0,0,0,0,0l0,0a.12.12,0,0,0,0,0,.12.12,0,0,1,0,0v0a.07.07,0,0,0,0,0V4.4a.07.07,0,0,0,0,0v.12l-.09,2.65a1,1,0,0,1-.05.25.56.56,0,0,1-.11.19.4.4,0,0,1-.14.12.36.36,0,0,1-.16,0h0l-.11,0-.11,0-.11-.08a.31.31,0,0,1-.08-.12,1,1,0,0,1-.08-.18,1.14,1.14,0,0,1,0-.22l0-.25a2,2,0,0,1,0-.25l0-.08a.58.58,0,0,1,0-.1V6.28A1.76,1.76,0,0,0,76,5.85c0-.14-.1-.28-.16-.41a1.1,1.1,0,0,0-.3-.36,1.7,1.7,0,0,0-.5-.26h-.08l-.07,0h-.07l-.07,0h-.18l0,0h-.2a2,2,0,0,0-.84.18,2.05,2.05,0,0,0-.68.53,2.72,2.72,0,0,0-.44.75,2.07,2.07,0,0,0-.14.83,2,2,0,0,0,.08.57,3.2,3.2,0,0,0,.24.57,2.33,2.33,0,0,0,.43.51,2.37,2.37,0,0,0,.65.4l.15.08.17.08.16.05.17.07.12.05.12.07.07,0h.07l.07,0,.07,0a7.2,7.2,0,0,1,.93.48,7.5,7.5,0,0,1,.86.62,2.45,2.45,0,0,1,.67.88,4.55,4.55,0,0,1,.36,1.29q0,.08,0,.18c0,.06,0,.13,0,.2v.09a.27.27,0,0,0,0,.09v.17a5.06,5.06,0,0,1-.18,1.39,4.65,4.65,0,0,1-.53,1.2,3.74,3.74,0,0,1-.81.91,2.49,2.49,0,0,1-1,.48l-.18,0-.18,0-.17,0h-.46a1.32,1.32,0,0,1-.29-.05l-.29-.05-.26-.07L73,17.39l-.25-.05a.82.82,0,0,0-.22-.05h-.36l0,0h0l0,0,0,0h0l0,0H72l0,0h-.08l-.07,0h0l0,0h-.21a.47.47,0,0,1-.23-.09.43.43,0,0,1-.14-.22,1.85,1.85,0,0,1-.08-.28,1.66,1.66,0,0,1,0-.32V16.4Z"/><path class="cls-1" d="M84.14,16.11h.17l.11,0h.74l.12,0h.12l.2,0,.13,0,.09.06.09.1.05.13a1.35,1.35,0,0,1,0,.16v0h0v.1A1.45,1.45,0,0,1,86,17a.67.67,0,0,1-.11.21.39.39,0,0,1-.14.12.42.42,0,0,1-.19,0h-4.2a.32.32,0,0,1-.18-.05.85.85,0,0,1-.15-.13,1.24,1.24,0,0,1-.1-.21.72.72,0,0,1,0-.25v-.1a.07.07,0,0,1,0,0v-.06a.05.05,0,0,1,0,0l0,0a.6.6,0,0,1,0-.12.34.34,0,0,1,.08-.1l.1-.07.11-.05h0l0,0h.2l0,0h.77l.11,0h.35V5.06H82.4l-.12,0h-1l-.16,0L81,5.13l-.11.07a.44.44,0,0,0-.11.1l-.08.12a.88.88,0,0,0-.07.16,1.15,1.15,0,0,0,0,.18,1,1,0,0,0,0,.18v.55a.1.1,0,0,0,0,.06.3.3,0,0,0,0,.07.31.31,0,0,1,0,.07v.08a.1.1,0,0,0,0,.06V7a.1.1,0,0,0,0,.06v.15a1.22,1.22,0,0,1,0,.14,1.13,1.13,0,0,1,0,.12,1,1,0,0,0,0,.12,1.13,1.13,0,0,1,0,.12,1.21,1.21,0,0,1-.08.17.3.3,0,0,1-.12.12l-.13.07a.34.34,0,0,1-.14,0h-.06a.61.61,0,0,1-.2,0A.52.52,0,0,1,79.67,8a.45.45,0,0,1-.13-.21.92.92,0,0,1,0-.27V4.62a1.86,1.86,0,0,1,0-.37,1.23,1.23,0,0,1,.11-.33.5.5,0,0,1,.2-.24.57.57,0,0,1,.28-.07h.18l.07,0h.08l.15,0h.15l.15,0,.15,0,.15,0h.15l.43,0,.45,0,.43,0h1.58l.11,0h.34l.11,0h.45l.22,0h.15l.15,0,.15,0,.15,0h.15l.15,0h.07l.08,0h.17a.52.52,0,0,1,.28.07.64.64,0,0,1,.2.24,1.49,1.49,0,0,1,.12.32,1.53,1.53,0,0,1,0,.38V7.54a.78.78,0,0,1,0,.27.51.51,0,0,1-.14.21.66.66,0,0,1-.19.12.52.52,0,0,1-.2,0l-.13,0-.13,0L86.45,8a.35.35,0,0,1-.08-.13.76.76,0,0,1-.05-.16l0-.18c0-.07,0-.13,0-.2s0-.13,0-.2V6.85a.09.09,0,0,1,0-.05V6.33a.09.09,0,0,1,0-.05V6.16a2.8,2.8,0,0,0,0-.42,1.5,1.5,0,0,0-.09-.34A.5.5,0,0,0,86,5.14a.59.59,0,0,0-.33-.08H84.07V16.11Z"/><path class="cls-1" d="M94.48,20.53q-.15-.34-.32-.65t-.35-.63l-.36-.59,0,0a.07.07,0,0,1,0,0l0,0,0,0,0,0,0,0,0,0,0,0a2.24,2.24,0,0,0-.25-.29,1.52,1.52,0,0,0-.27-.21,1.4,1.4,0,0,0-.3-.13,1.09,1.09,0,0,0-.34-.05,2.39,2.39,0,0,1-.81-.23,2.9,2.9,0,0,1-.74-.52,4.81,4.81,0,0,1-.65-.77,5.37,5.37,0,0,1-.49-.91,10.63,10.63,0,0,1-.36-1q-.16-.53-.28-1.11T88.61,12q-.06-.59-.08-1.17v-.31q0-.35,0-.71t0-.71q0-.35.09-.69l.12-.67a8.68,8.68,0,0,1,.61-1.86,5,5,0,0,1,.9-1.35,4.42,4.42,0,0,1,1.09-.83,2.65,2.65,0,0,1,1.15-.31h.08a3,3,0,0,1,1,.21,3.47,3.47,0,0,1,.93.56,3.83,3.83,0,0,1,.81.94A6.87,6.87,0,0,1,96,6.38q.15.44.27.88t.19.92q.08.48.13,1t.07,1v.43q0,.46,0,.91t-.09.89q-.06.46-.14.88a7.94,7.94,0,0,1-.2.84,7.41,7.41,0,0,1-.36,1.06,6.63,6.63,0,0,1-.46.89,4.68,4.68,0,0,1-.56.73,5.61,5.61,0,0,1-.7.63,5.17,5.17,0,0,1,.47.51,6.12,6.12,0,0,1,.42.59q.21.31.4.64l.39.68a.58.58,0,0,0,.08.15.25.25,0,0,0,.09.08l.09.06.11,0h.06l.06,0,.07,0,.08-.05.07-.05a.13.13,0,0,1,.08,0l.07,0h.07a.28.28,0,0,1,.18.06.78.78,0,0,1,.14.15.93.93,0,0,1,.09.21.81.81,0,0,1,0,.23l0,.16a.57.57,0,0,1,0,.13l-.08.12a.44.44,0,0,1-.11.1l-1.43,1,0,0s0,0,0,0H95.3a.21.21,0,0,1-.12,0,.44.44,0,0,1-.11-.1L95,21.71l-.07-.16a.69.69,0,0,0,0-.11l0-.09,0-.07,0-.07v0Q94.63,20.87,94.48,20.53Zm-3-15.32a2.23,2.23,0,0,0-.72.94,8.37,8.37,0,0,0-.45,1.3,9.73,9.73,0,0,0-.25,1.43c0,.14,0,.28,0,.42s0,.29,0,.45,0,.28,0,.41v.64a.24.24,0,0,0,0,.08v.48a.61.61,0,0,0,0,.14c0,.06,0,.11,0,.17s0,.11,0,.17,0,.11,0,.17a1,1,0,0,0,0,.15c0,.06,0,.11,0,.17s0,.11,0,.17a7.71,7.71,0,0,0,.73,2.57,2.16,2.16,0,0,0,.68.87,1.51,1.51,0,0,0,1,.27h.15l.15,0,.15,0,.15,0a2.16,2.16,0,0,0,.8-.51,2.55,2.55,0,0,0,.55-.88,9.81,9.81,0,0,0,.36-1.12,9.14,9.14,0,0,0,.23-1.2c0-.15,0-.31,0-.47s0-.32,0-.49,0-.31,0-.47,0-.31,0-.45,0-.3,0-.44,0-.29,0-.45,0-.31,0-.48,0-.33,0-.5a9.62,9.62,0,0,0-.27-1.36,7.82,7.82,0,0,0-.46-1.23,2.06,2.06,0,0,0-.71-.89,1.8,1.8,0,0,0-1-.29A1.76,1.76,0,0,0,91.53,5.21Z"/><path class="cls-1" d="M98.6,5h-.17l-.06,0h-.24l-.2,0L97.75,5a.43.43,0,0,1-.16-.12.52.52,0,0,1-.1-.23.12.12,0,0,0,0,0,.12.12,0,0,1,0,0s0,0,0,0v0a.12.12,0,0,0,0,0,.11.11,0,0,1,0,0V4.31a.7.7,0,0,1,0-.26.53.53,0,0,1,.14-.2.52.52,0,0,1,.2-.15.59.59,0,0,1,.21,0h2.43a.63.63,0,0,1,.23,0,.52.52,0,0,1,.2.15.63.63,0,0,1,.14.2.66.66,0,0,1,.05.28V4.4l0,0V4.5s0,0,0,0a.12.12,0,0,1,0,0,.12.12,0,0,0,0,0,1.08,1.08,0,0,1-.11.22.39.39,0,0,1-.14.13l-.18.06-.18,0h-.22l-.05,0H100v8.24q0,.31,0,.59l0,.55a2.14,2.14,0,0,0,.13.53,2.42,2.42,0,0,0,.25.49,1.34,1.34,0,0,0,.27.31,1.66,1.66,0,0,0,.32.21,1.26,1.26,0,0,0,.35.11,2.16,2.16,0,0,0,.36,0H102l.14,0,.13,0a2,2,0,0,0,.83-.48,1.5,1.5,0,0,0,.39-.79,9.81,9.81,0,0,0,.14-1q0-.55,0-1.15V5h-.21l-.06,0h-.3a.56.56,0,0,1-.18,0l-.18-.07a.35.35,0,0,1-.14-.11.55.55,0,0,1-.08-.2l0,0a.05.05,0,0,1,0,0V4.33a.92.92,0,0,1,0-.27.53.53,0,0,1,.11-.21.42.42,0,0,1,.17-.15.57.57,0,0,1,.22,0h2.4a.63.63,0,0,1,.23,0,.52.52,0,0,1,.2.15.65.65,0,0,1,.12.2.76.76,0,0,1,0,.28v.08a.07.07,0,0,0,0,0v0a.74.74,0,0,1-.08.28.44.44,0,0,1-.17.18.68.68,0,0,1-.21.08l-.23,0h-.19l-.05,0h-.18v8.57q0,.37-.05.75a6.65,6.65,0,0,1-.11.72,3.59,3.59,0,0,1-.18.69,3.43,3.43,0,0,1-.3.61,2.62,2.62,0,0,1-.45.54,2.38,2.38,0,0,1-.54.37q-.29.12-.58.22a2.48,2.48,0,0,1-.59.11h0l-.05,0h-.36l-.08,0h-.18l-.08,0h-.06a4.65,4.65,0,0,1-.6-.17,2.75,2.75,0,0,1-.58-.29,2.32,2.32,0,0,1-.52-.46,3.29,3.29,0,0,1-.41-.62,3.45,3.45,0,0,1-.25-.62,4.32,4.32,0,0,1-.14-.68q0-.35-.06-.7t0-.7V5Z"/><path class="cls-1" d="M108,4.93h0a.54.54,0,0,1-.25-.05.63.63,0,0,1-.17-.13,1.11,1.11,0,0,1-.1-.22.74.74,0,0,1,0-.24.69.69,0,0,1,0-.22.54.54,0,0,1,.11-.2.49.49,0,0,1,.18-.16.59.59,0,0,1,.26-.05h5a.52.52,0,0,1,.23.05.39.39,0,0,1,.17.16.47.47,0,0,1,.11.2.86.86,0,0,1,0,.22v0a.71.71,0,0,1,0,.22.73.73,0,0,1-.11.2.44.44,0,0,1-.17.13.52.52,0,0,1-.23.05h-1.65V16.09h2.35a.6.6,0,0,1,.25.05.38.38,0,0,1,.17.16.47.47,0,0,1,.11.2.93.93,0,0,1,0,.24.75.75,0,0,1,0,.24.78.78,0,0,1-.11.22.38.38,0,0,1-.17.16.64.64,0,0,1-.27.05h-5.3a.55.55,0,0,1-.24-.05.59.59,0,0,1-.18-.13,1.23,1.23,0,0,1-.1-.21.66.66,0,0,1,0-.23v0a.75.75,0,0,1,0-.24.71.71,0,0,1,.1-.2.51.51,0,0,1,.17-.16.54.54,0,0,1,.25-.05H110V4.93h-2Z"/><path class="cls-1" d="M121.69,15.88a.68.68,0,0,0,.38-.34,3.49,3.49,0,0,0,.21-.49,4.35,4.35,0,0,0,.15-.55v-.08l.05-.2,0-.18,0-.08,0-.1,0-.08,0-.08.07-.12a.2.2,0,0,1,.08-.08l.09-.06.09,0h0a.33.33,0,0,1,.17.05.44.44,0,0,1,.14.16.76.76,0,0,1,.11.23,1,1,0,0,1,0,.29v.06l-.18,2.71a1.06,1.06,0,0,1-.07.33.3.3,0,0,1-.14.17l-.2.05a.73.73,0,0,1-.22,0h-.12l-.06,0h-.18l-.05,0h-.05l-.3,0h-4.39a2.25,2.25,0,0,1-.38,0,1.25,1.25,0,0,1-.35-.11.56.56,0,0,1-.26-.29,1.75,1.75,0,0,1-.12-.54v-.1h0v-.09a1.87,1.87,0,0,1,0-.42q0-.2.11-.4c.05-.14.1-.27.16-.39l.17-.37,0-.07,0-.05,0,0,0,0,0-.06L121.56,5h-2.4a1.71,1.71,0,0,0-.64.1.82.82,0,0,0-.39.31,2.57,2.57,0,0,0-.23.42,2.35,2.35,0,0,0-.14.44l0,.1a.24.24,0,0,0,0,.08.46.46,0,0,0,0,.08.42.42,0,0,0,0,.08q0,.12,0,.24c0,.08,0,.15-.05.22a.55.55,0,0,1-.06.17l-.09.14,0,.05-.05.05,0,0,0,0h0l0,0h-.13a.29.29,0,0,1-.17-.05.63.63,0,0,1-.15-.16,1,1,0,0,1-.1-.24,1,1,0,0,1,0-.28V6.84l.18-2.69a.87.87,0,0,1,.05-.32.41.41,0,0,1,.14-.2.69.69,0,0,1,.2-.09.75.75,0,0,1,.21,0h.18l0,0H118l.1,0h.11l.21,0h.21l.1,0h.22l0,0H119l.31,0h2.88a1.85,1.85,0,0,1,.42,0,.6.6,0,0,1,.28.15.5.5,0,0,1,.16.23.89.89,0,0,1,.05.31,1.27,1.27,0,0,1,0,.23c0,.08,0,.17-.05.25l-.09.26a1.93,1.93,0,0,1-.12.28L117.67,16H121A1.77,1.77,0,0,0,121.69,15.88Z"/></svg>